<?xml version="1.0" encoding="UTF-8"?>
<svg width="522" height="522" xmlns="http://www.w3.org/2000/svg">
 <path d="m522 522h-522v-522h522zm-517-517v512h512v-512z" fill="rgba(0,0,0,0)"/>
 <path d="m5 5h512v512h-512zm406 318 20.25-18.75c24.01-22.23 24.57-23.28 11.75-34.25l-6-7-14.25-17.25c-11.72-14.19-14.38-18-15.75-25.75v-161l-1.75-1.2c-1.52-1.05-7.9 3.77-96.25 75.2h-46-49l-13.25-10.59c-7.29-5.83-28.77-23.03-47.75-38.23-27.42-21.97-34.76-27.39-37-25.18v160l-0.25 4.04c-0.22 3.62-2.09 6.27-35.75 46.96l-2.25 1.34c-1.24 0.74-3.6 3.2-5.25 5.46-4.26 5.86-3.22 7.31 40.5 46.2l73.14 69.25c40.23 38.09 73.99 69.39 75.03 69.56 1.32 0.21 23.79-20.3 149.83-138.81z" fill="rgba(38,35,45,1)"/>
 <path d="m239 408-11-31 0.75-19.25c0.41-10.59 0.64-26.11 0.25-49.75l-1-6 1.62-1.75c1.07-1.16 1.58-3.38 1.5-6.59-0.14-5.6 1.17-7.38 9.88-13.5 5.5-3.87 5.5-3.87 5-14.16l2.69 0.98c4.34 1.59 3.97 0.4-7.69-12.98l-9-11-3-3-10.05-12.75c-5.52-7.01-11.37-15.11-15.95-23.25l-4-6-5-8-3.38-5.5c-1.86-3.02-3.17-5.5-2.91-5.5s-0.92-1.8-5.71-8l-3-6 12.25-11.24c6.74-6.18 14.61-13.38 22.75-20.76h49l-0.75 2.75c-0.41 1.51-0.73 11.08-0.71 21.25s0.02 26.83 0 37 0.07 29.41 0.46 67l-0.73 1.25c-0.4 0.69-2.54 3.1-4.75 5.36-4.02 4.11-4.02 4.11-0.16 8.5 3.85 4.38 3.86 4.42 5.64 27.89l-0.48 40.25c-0.27 22.14-0.27 41.49 0.48 45.75l-1.75-0.07c-7.65-0.29-16.28 5.82-21.25 18.07z" fill="rgba(252,117,0,1)"/>
 <path d="m262 390c-0.75-4.26-0.75-23.61-0.48-45.75l0.48-40.25v-43c-0.39-37.59-0.48-56.83-0.46-67s0.02-26.83 0-37 0.3-19.74 0.71-21.25l0.75-2.75h46v2l1 83-31 40-7 8-0.65 1.86c-0.87 2.47 4.7 3.6 10.8 2.2 5.64-1.3 9.63 1.24 10.67 6.77 0.63 3.38 1.02 3.73 9.18 5.17l-2.74 6.82c-1.51 3.75-3.31 9.38-5.26 18.18v58l-0.72 6c-0.54 4.46-0.41 6 1.72 6l-1.97 4.75c-1.78 4.32-7.8 20.97-9.03 25.25l-2.81-5.22c-3.49-6.46-9.21-10.82-19.19-11.78z" fill="rgba(252,153,0,1)"/>
 <path d="m116 219v-160l20 34-0.52 0.32c-0.28 0.17-0.39 25.01 0.02 110.07l20.11-18.44c11.06-10.15 20.62-18.79 22.39-19.95h1l3 6-0.18 2.75c-0.29 4.4 0.06 5.25 2.18 5.25 1.1 0 2 0.6 2 1.32 0 0.73 1.8 3.21 8 9.68l5 8 4 6c4.58 8.14 10.43 16.24 15.95 23.25l10.05 12.75 3 3 9 11-5 7-45.25-16.25c-24.89-8.94-51.89-18.39-74.75-25.75z" fill="rgba(204,53,7,1)"/>
 <path d="m284 414v-7c1.23-4.28 7.25-20.93 9.03-25.25l1.97-4.75 2-5 3-8 4-7 5-9 5-7 7-10 8.25-8.25c25.02-25.02 55.06-40.98 111.75-52.75h2c12.82 10.97 12.26 12.02-11.75 34.25l-20.25 18.75-0.96-0.25c-1.68-0.44-49.96 26.41-64.57 35.91-15.64 10.16-30.12 22.69-61.47 55.34z" fill="rgba(252,249,239,1)"/>
 <path d="m279 258 31-40 3-2 3-5 5-8 3-5 4-6 6-10 4-6 4-7 3-4 20.25 18.25c11.14 10.04 20.7 18.25 21.25 18.25 0.66 0 0.91-18.58 0.5-108.5l20-34v161h-4l-1.75-1.16c-1.41-0.93-3.03-0.61-8.25 1.63-3.57 1.54-9.87 3.77-14 4.97-19.18 5.57-43.39 14.7-50 20.56l-5 1-2.71 0.25c-1.49 0.14-3.29 0.81-5.29 2.75l-3 1-3.43-3.09c-4.2-3.8-7.18-3.25-9.14 1.66-0.93 2.36-2.18 3.56-4.13 4.01-1.54 0.35-5.86 1.98-9.6 3.62-4.33 1.9-6.96 2.58-7.7 0.8zm109.85-51c-1.19 0-1.06 3.4 0.15 4.28 0.55 0.4 1.68 0.72 2.5 0.72 0.83 0 1.5-0.3 1.5-0.67 0-1.01-3.19-4.33-4.15-4.33" fill="rgba(204,53,7,1)"/>
 <path d="m113 323c-43.72-38.89-44.76-40.34-40.5-46.2 1.65-2.26 4.01-4.72 5.25-5.46l2.25-1.34 7 1 3.25 0.47c38.41 5.61 75.41 23.79 112.75 61.53l6 8 6.66 11.25c3.66 6.19 7.94 14.29 12.34 24.75l11 31 1 8-10.54-11.75c-14.45-16.11-31.59-31.78-45.39-41.49-12.49-8.79-59.87-35.96-71.07-39.76z" fill="rgba(252,249,239,1)"/>
 <path d="m113 323c11.2 3.8 58.58 30.97 71.07 39.76 13.8 9.71 30.94 25.38 45.39 41.49l10.54 11.75 2 3.25c8.71 14.16 31.49 13.78 42-5.25 31.35-32.65 45.83-45.18 61.47-55.34 14.61-9.5 62.89-36.35 64.57-35.91l0.96 0.25c-126.04 118.51-148.51 139.02-149.83 138.81-1.04-0.17-34.8-31.47-75.03-69.56z" fill="rgba(226,221,198,1)"/>
 <path d="m228 302-2.25-7.75c-6.61-22.75-27.59-36.25-65.75-36.25l-30.25 4.75c-16.64 2.61-33.06 5.54-42.75 8.25l-7-1c33.66-40.69 35.53-43.34 35.75-46.96l0.25-4.04c22.86 7.36 49.86 16.81 74.75 25.75l45.25 16.25 10 5c0.5 10.29 0.5 10.29-5 14.16-8.71 6.12-10.02 7.9-9.88 13.5 0.08 3.21-0.43 5.43-1.5 6.59z" fill="rgba(252,135,0,1)"/>
 <path d="m302 282c-8.16-1.44-8.55-1.79-9.18-5.17-1.04-5.53-5.03-8.07-10.67-6.77-6.1 1.4-11.67 0.27-10.8-2.2l0.65-1.86 4.25-0.75c2.34-0.41 11.56-3.79 36.75-14.25l3-1 8-3 5-1 34.25-11.87c18.84-6.53 35.49-12.38 39.75-14.13h4c1.37 7.75 4.03 11.56 15.75 25.75l14.25 17.25v6l-34.25-5.25c-18.84-2.89-35.26-5.14-38.75-4.75l-4.25-0.65c-16.54-2.52-38.81 4.71-57.75 23.65z" fill="rgba(252,135,0,1)"/>
 <path d="m228 377c-4.4-10.46-8.68-18.56-12.34-24.75l-6.66-11.25 2.85 0.75c1.56 0.41 4.5 2.33 6.53 4.25 3.68 3.5 3.68 3.5 4.52-5.5 0.46-4.95 1.32-10.35 1.91-12s1.21-5.67 1.38-8.93c0.31-5.93 0.31-5.93-3.08-4.58-8.12 3.23-18.5 11.08-20.11 18.01-37.34-37.74-74.34-55.92-112.75-61.53l-3.25-0.47c9.69-2.71 26.11-5.64 42.75-8.25l30.25-4.75 0.38 1.75c0.99 4.54 10.7 19.31 16.62 25.26 8.35 8.4 18.66 13.58 52 22.99 0.39 23.64 0.16 39.16-0.25 49.75z" fill="rgba(244,73,0,1)"/>
 <path d="m309 135v-2c88.35-71.43 94.73-76.25 96.25-75.2l1.75 1.2-20 34-42 72-16.35-14.25c-8.99-7.84-17.09-14.59-19.65-15.75z" fill="rgba(244,73,0,1)"/>
 <path d="m178 165-42-72-20-34c2.24-2.21 9.58 3.21 37 25.18 18.98 15.2 40.46 32.4 47.75 38.23l13.25 10.59c-8.14 7.38-16.01 14.58-22.75 20.76l-12.25 11.24z" fill="rgba(244,73,0,1)"/>
 <path d="m321 331-2.55-3c-1.41-1.65-3.03-3-3.61-3-1.67 0-18.56-12.82-19.25-14.61-0.34-0.9-0.16-2.03 1.41-3.39l6.25-1.56c28.85-7.22 41.31-15.22 60.75-46.44 3.49-0.39 19.91 1.86 38.75 4.75l34.25 5.25 4 1c-56.69 11.77-86.73 27.73-111.75 52.75z" fill="rgba(244,73,0,1)"/>
 <path d="m136 93 42 72c-1.77 1.16-11.33 9.8-22.39 19.95l-20.11 18.44c-0.41-85.06-0.3-109.9-0.02-110.07z" fill="rgba(38,35,45,1)"/>
 <path d="m345 165 42-72c0.41 89.92 0.16 108.5-0.5 108.5-0.55 0-10.11-8.21-21.25-18.25z" fill="rgba(38,35,45,1)"/>
 <path d="m160 258c38.16 0 59.14 13.5 65.75 36.25l2.25 7.75 1 6c-33.34-9.41-43.65-14.59-52-22.99-5.92-5.95-15.63-20.72-16.62-25.26z" fill="rgba(38,35,45,1)"/>
 <path d="m294 307c1.95-8.8 3.75-14.43 5.26-18.18l2.74-6.82c18.94-18.94 41.21-26.17 57.75-23.65l4.25 0.65c-19.44 31.22-31.9 39.22-60.75 46.44l-6.25 1.56z" fill="rgba(38,35,45,1)"/>
 <path d="m310 218-1-83c2.56 1.16 10.66 7.91 19.65 15.75l16.35 14.25-3 4-4 7-4 6-6 10-4 6-3 5-5 8-3 5z" fill="rgba(252,117,0,1)"/>
 <path d="m240 416-1-8c4.97-12.25 13.6-18.36 21.25-18.07l1.75 0.07c9.98 0.96 15.7 5.32 19.19 11.78l2.81 5.22v7c-10.51 19.03-33.29 19.41-42 5.25z" fill="rgba(38,35,45,1)"/>
 <path d="m294 365v-58h3c-1.57 1.36-1.75 2.49-1.41 3.39 0.69 1.79 17.58 14.61 19.25 14.61 0.58 0 2.2 1.35 3.61 3l2.55 3-7 10-1.12-0.6c-1.39-0.74-6.88 3.19-6.88 4.93 0 0.69 0.67 1.58 3 2.67l-5 9h-1.14c-0.63 0-1.66-0.72-2.3-1.59-2.29-3.13-3.9 0.71-0.56 8.59l-3 8-1.51-0.25c-0.98-0.16-1.5-1.38-1.49-6.75zm19.42-27.64c0.95-2.49-0.13-2.85-1.35-0.46-0.59 1.16-0.67 2.1-0.18 2.1s1.18-0.74 1.53-1.64" fill="rgba(204,53,7,1)"/>
 <path d="m209 341-6-8c1.61-6.93 11.99-14.78 20.11-18.01 3.39-1.35 3.39-1.35 3.08 4.58-0.17 3.26-0.79 7.28-1.38 8.93s-1.45 7.05-1.91 12c-0.84 9-0.84 9-4.52 5.5-2.03-1.92-4.97-3.84-6.53-4.25z" fill="rgba(204,53,7,1)"/>
 <path d="m329 246c6.61-5.86 30.82-14.99 50-20.56 4.13-1.2 10.43-3.43 14-4.97 5.22-2.24 6.84-2.56 8.25-1.63l1.75 1.16c-4.26 1.75-20.91 7.6-39.75 14.13z" fill="rgba(244,73,0,1)"/>
 <path d="m272 266 7-8c0.74 1.78 3.37 1.1 7.7-0.8 3.74-1.64 8.06-3.27 9.6-3.62 1.95-0.45 3.2-1.65 4.13-4.01 1.96-4.91 4.94-5.46 9.14-1.66l3.43 3.09c-25.19 10.46-34.41 13.84-36.75 14.25z" fill="rgba(244,73,0,1)"/>
 <path d="m262 261v43c-1.78-23.47-1.79-23.51-5.64-27.89-3.86-4.39-3.86-4.39 0.16-8.5 2.21-2.26 4.35-4.67 4.75-5.36z" fill="rgba(252,135,0,1)"/>
 <path d="m246 266-10-5 5-7c11.66 13.38 12.03 14.57 7.69 12.98z" fill="rgba(244,73,0,1)"/>
 <path d="m182 171c4.79 6.2 5.97 8 5.71 8s1.05 2.48 2.91 5.5l3.38 5.5c-6.2-6.47-8-8.95-8-9.68 0-0.72-0.9-1.32-2-1.32-2.12 0-2.47-0.85-2.18-5.25z" fill="rgba(244,73,0,1)"/>
 <path d="m300 364c-3.34-7.88-1.73-11.72 0.56-8.59 0.64 0.87 1.67 1.59 2.3 1.59h1.14z" fill="rgba(244,73,0,1)"/>
 <path d="m309 348c-2.33-1.09-3-1.98-3-2.67 0-1.74 5.49-5.67 6.88-4.93l1.12 0.6z" fill="rgba(244,73,0,1)"/>
 <path d="m441 270-4-1v-6l6 7z" fill="rgba(252,153,0,1)"/>
 <path d="m294 365c-0.01 5.37 0.51 6.59 1.49 6.75l1.51 0.25-2 5c-2.13 0-2.26-1.54-1.72-6z" fill="rgba(252,117,0,1)"/>
 <path d="m388.85 207c0.96 0 4.15 3.32 4.15 4.33 0 0.37-0.67 0.67-1.5 0.67-0.82 0-1.95-0.32-2.5-0.72-1.21-0.88-1.34-4.28-0.15-4.28" fill="rgba(244,73,0,1)"/>
 <path d="m328 192 6-10z" fill="rgba(244,73,0,1)"/>
 <path d="m316 250c2-1.94 3.8-2.61 5.29-2.75l2.71-0.25z" fill="rgba(244,73,0,1)"/>
 <path d="m338 176 4-7z" fill="rgba(244,73,0,1)"/>
 <path d="m199 198 4 6z" fill="rgba(244,73,0,1)"/>
 <path d="m313 216 3-5z" fill="rgba(244,73,0,1)"/>
 <path d="m321 203 3-5z" fill="rgba(244,73,0,1)"/>
 <path d="m313.42 337.36c-0.35 0.9-1.04 1.64-1.53 1.64s-0.41-0.94 0.18-2.1c1.22-2.39 2.3-2.03 1.35 0.46" fill="rgba(244,73,0,1)"/>
 <path d="m229 240 3 3z" fill="rgba(244,73,0,1)"/>
</svg> 